<svg width="160" height="34" viewBox="0 0 160 34" fill="none" xmlns="http://www.w3.org/2000/svg">
<path d="M31.2341 19.2498V22.6846L20.6147 28.7312L9.99524 22.6846V19.2476L6.00391 16.9746V24.9574L20.6147 33.2765L35.2255 24.9574V16.9774L31.2341 19.2498Z" fill="white"/>
<path d="M41.234 11.7407L20.617 0L0 11.7407L20.617 23.4781L24.6078 21.2058L20.617 18.9334L7.9794 11.7407L20.617 4.54526L33.253 11.7407L28.9318 14.1992L24.9382 16.4716L28.929 18.7472L32.9232 16.4716L41.234 11.7407Z" fill="white"/>
<path d="M32.9198 16.4718L28.9284 14.1994L20.6242 9.4707L16.6356 11.7403L16.6328 11.7458L24.9348 16.4718L28.9256 18.7469L32.9198 16.4718Z" fill="white"/>
<path d="M2.49433 11.5605H1.16406V22.2012H2.49433V11.5605Z" fill="white"/>
<path d="M1.82843 25.2777C1.67104 25.278 1.51515 25.2477 1.36966 25.1885C1.22418 25.1293 1.09196 25.0424 0.980572 24.9327C0.869176 24.8231 0.780806 24.6928 0.720513 24.5495C0.660217 24.4061 0.629183 24.2524 0.629184 24.0972V20.515C0.625751 20.3578 0.654182 20.2016 0.71281 20.0554C0.771439 19.9091 0.859086 19.7759 0.970606 19.6635C1.08213 19.5512 1.21527 19.4618 1.36224 19.4009C1.50922 19.34 1.66705 19.3086 1.82648 19.3086C1.98593 19.3086 2.14376 19.34 2.29073 19.4009C2.4377 19.4618 2.57085 19.5512 2.68237 19.6635C2.79389 19.7759 2.88153 19.9091 2.94016 20.0554C2.99879 20.2016 3.02722 20.3578 3.02379 20.515V24.0972C3.02379 24.41 2.8979 24.7101 2.67377 24.9314C2.44965 25.1527 2.14561 25.2773 1.82843 25.2777Z" fill="white"/>
<path d="M54.0117 26.8535V5.9435H68.1594V9.26537H57.8379V14.7227H66.6764V18.0446H57.8379V23.5316H68.1594V26.8535H54.0117ZM84.5254 26.8535H80.6999V25.4299L81.4113 23.1757H80.403C79.5132 25.8253 77.5361 27.1501 74.4709 27.1501C72.3949 27.1501 70.7537 26.4185 69.5475 24.9553C68.3612 23.4921 67.768 21.6433 67.768 19.4089C67.768 17.1746 68.3612 15.3258 69.5475 13.8626C70.7537 12.3994 72.3949 11.6678 74.4709 11.6678C77.5361 11.6678 79.5132 13.0025 80.403 15.6719H81.4113L80.6999 13.3881V5.05371H84.5254V26.8535ZM79.4832 22.7308C80.2941 21.9992 80.6999 20.8919 80.6999 19.4089C80.6999 17.9259 80.2941 16.8187 79.4832 16.0871C78.673 15.3555 77.5456 14.9897 76.1022 14.9897C73.0968 14.9897 71.5941 16.4628 71.5941 19.4089C71.5941 22.3552 73.0968 23.8282 76.1022 23.8282C77.5456 23.8282 78.673 23.4625 79.4832 22.7308ZM93.3281 23.8282C94.7715 23.8282 95.9085 23.3438 96.7391 22.3749C97.5895 21.3863 98.0143 19.9033 98.0143 17.9259V11.9644H101.811V26.8535H98.0143V24.7477L98.6965 22.4639H97.7174C97.4016 23.8678 96.7589 25.0047 95.79 25.8747C94.841 26.725 93.595 27.1501 92.053 27.1501C90.1943 27.1501 88.7407 26.5767 87.6929 25.4299C86.6649 24.2633 86.1501 22.6023 86.1501 20.4471V11.9644H89.9764V19.8539C89.9764 21.2973 90.2338 22.3255 90.7478 22.9384C91.2618 23.5316 92.1217 23.8282 93.3281 23.8282Z" fill="white"/>
<path d="M107.733 27.1493C106.863 27.1493 106.151 26.8724 105.598 26.3188C105.064 25.7454 104.797 25.0335 104.797 24.1833C104.797 23.3528 105.064 22.6608 105.598 22.1071C106.151 21.5535 106.863 21.2766 107.733 21.2766C108.583 21.2766 109.285 21.5535 109.839 22.1071C110.412 22.6608 110.699 23.3528 110.699 24.1833C110.699 25.0335 110.412 25.7454 109.839 26.3188C109.285 26.8724 108.583 27.1493 107.733 27.1493ZM112.883 11.9636H116.709V13.3872L116.027 15.671H117.005C117.895 13.0016 119.872 11.667 122.938 11.667C125.013 11.667 126.645 12.4085 127.831 13.8915C129.038 15.3546 129.64 17.2034 129.64 19.4378C129.64 21.6524 129.038 23.4912 127.831 24.9545C126.645 26.4177 125.013 27.1493 122.938 27.1493C119.872 27.1493 117.895 25.8244 117.005 23.1749H116.027L116.709 25.429V32.399H112.883V11.9636ZM116.709 19.4378C116.709 20.9208 117.114 22.0281 117.925 22.7596C118.755 23.4715 119.883 23.8274 121.306 23.8274C122.73 23.8274 123.837 23.4715 124.628 22.7596C125.419 22.0281 125.815 20.9208 125.815 19.4378C125.815 17.9351 125.419 16.8179 124.628 16.0863C123.837 15.3546 122.73 14.9888 121.306 14.9888C119.883 14.9888 118.755 15.3546 117.925 16.0863C117.114 16.8179 116.709 17.9351 116.709 19.4378ZM130.245 26.8526V14.0101C130.245 13.2587 130.442 12.6853 130.838 12.2898C131.253 11.8944 131.836 11.7065 132.588 11.7263L141.752 11.9636V15.2855L134.071 15.0778V26.8526H130.245ZM143.301 25.0731C141.779 23.689 141.017 21.8007 141.017 19.4081C141.017 17.0156 141.779 15.1272 143.301 13.7431C144.824 12.3591 146.791 11.667 149.204 11.667C151.596 11.667 153.554 12.3591 155.076 13.7431C156.599 15.1272 157.36 17.0156 157.36 19.4081C157.36 21.8007 156.599 23.689 155.076 25.0731C153.554 26.4572 151.596 27.1493 149.204 27.1493C146.791 27.1493 144.824 26.4572 143.301 25.0731ZM146 16.1752C145.229 16.9662 144.844 18.0438 144.844 19.4081C144.844 20.7725 145.229 21.8501 146 22.641C146.771 23.4319 147.839 23.8274 149.204 23.8274C150.568 23.8274 151.636 23.4319 152.407 22.641C153.178 21.8501 153.564 20.7725 153.564 19.4081C153.564 18.0438 153.178 16.9662 152.407 16.1752C151.636 15.3843 150.568 14.9888 149.204 14.9888C147.839 14.9888 146.771 15.3843 146 16.1752Z" fill="#E4632C"/>
</svg>
