<svg width="179" height="209" viewBox="0 0 179 209" fill="none" xmlns="http://www.w3.org/2000/svg">
<line x1="5.79679" y1="4.37709e-08" x2="5.79679" y2="17.3569" stroke="#2A2A2D" stroke-width="2.00272"/>
<line x1="14.1421" y1="9.0121" x2="-3.21484" y2="9.0121" stroke="#2A2A2D" stroke-width="2.00272"/>
<line x1="33.1532" y1="4.37709e-08" x2="33.1532" y2="17.3569" stroke="#2A2A2D" stroke-width="2.00272"/>
<line x1="41.4985" y1="9.0121" x2="24.1416" y2="9.0121" stroke="#2A2A2D" stroke-width="2.00272"/>
<line x1="60.5097" y1="4.37709e-08" x2="60.5097" y2="17.3569" stroke="#2A2A2D" stroke-width="2.00272"/>
<line x1="68.855" y1="9.0121" x2="51.498" y2="9.0121" stroke="#2A2A2D" stroke-width="2.00272"/>
<line x1="87.8671" y1="4.37709e-08" x2="87.8671" y2="17.3569" stroke="#2A2A2D" stroke-width="2.00272"/>
<line x1="96.2124" y1="9.0121" x2="78.8555" y2="9.0121" stroke="#2A2A2D" stroke-width="2.00272"/>
<line x1="115.225" y1="4.37709e-08" x2="115.225" y2="17.3569" stroke="#2A2A2D" stroke-width="2.00272"/>
<line x1="123.57" y1="9.0121" x2="106.213" y2="9.0121" stroke="#2A2A2D" stroke-width="2.00272"/>
<line x1="142.582" y1="4.37709e-08" x2="142.582" y2="17.3569" stroke="#2A2A2D" stroke-width="2.00272"/>
<line x1="150.927" y1="9.0121" x2="133.57" y2="9.0121" stroke="#2A2A2D" stroke-width="2.00272"/>
<line x1="169.937" y1="4.37709e-08" x2="169.937" y2="17.3569" stroke="#2A2A2D" stroke-width="2.00272"/>
<line x1="178.283" y1="9.0121" x2="160.926" y2="9.0121" stroke="#2A2A2D" stroke-width="2.00272"/>
<line x1="5.79679" y1="27.3569" x2="5.79679" y2="44.7139" stroke="#2A2A2D" stroke-width="2.00272"/>
<line x1="14.1421" y1="36.3695" x2="-3.21484" y2="36.3695" stroke="#2A2A2D" stroke-width="2.00272"/>
<line x1="33.1532" y1="27.3569" x2="33.1532" y2="44.7139" stroke="#2A2A2D" stroke-width="2.00272"/>
<line x1="41.4985" y1="36.3695" x2="24.1416" y2="36.3695" stroke="#2A2A2D" stroke-width="2.00272"/>
<line x1="60.5097" y1="27.3569" x2="60.5097" y2="44.7139" stroke="#2A2A2D" stroke-width="2.00272"/>
<line x1="68.855" y1="36.3695" x2="51.498" y2="36.3695" stroke="#2A2A2D" stroke-width="2.00272"/>
<line x1="87.8671" y1="27.3569" x2="87.8671" y2="44.7139" stroke="#2A2A2D" stroke-width="2.00272"/>
<line x1="96.2124" y1="36.3695" x2="78.8555" y2="36.3695" stroke="#2A2A2D" stroke-width="2.00272"/>
<line x1="115.225" y1="27.3569" x2="115.225" y2="44.7139" stroke="#2A2A2D" stroke-width="2.00272"/>
<line x1="123.57" y1="36.3695" x2="106.213" y2="36.3695" stroke="#2A2A2D" stroke-width="2.00272"/>
<line x1="142.582" y1="27.3569" x2="142.582" y2="44.7139" stroke="#2A2A2D" stroke-width="2.00272"/>
<line x1="150.927" y1="36.369" x2="133.57" y2="36.369" stroke="#2A2A2D" stroke-width="2.00272"/>
<line x1="169.937" y1="27.3569" x2="169.937" y2="44.7139" stroke="#2A2A2D" stroke-width="2.00272"/>
<line x1="178.283" y1="36.369" x2="160.926" y2="36.369" stroke="#2A2A2D" stroke-width="2.00272"/>
<line x1="5.79679" y1="54.7139" x2="5.79679" y2="72.0708" stroke="#2A2A2D" stroke-width="2.00272"/>
<line x1="14.1421" y1="63.726" x2="-3.21484" y2="63.726" stroke="#2A2A2D" stroke-width="2.00272"/>
<line x1="33.1532" y1="54.7139" x2="33.1532" y2="72.0708" stroke="#2A2A2D" stroke-width="2.00272"/>
<line x1="41.4985" y1="63.726" x2="24.1416" y2="63.726" stroke="#2A2A2D" stroke-width="2.00272"/>
<line x1="60.5097" y1="54.7139" x2="60.5097" y2="72.0708" stroke="#2A2A2D" stroke-width="2.00272"/>
<line x1="68.855" y1="63.726" x2="51.498" y2="63.726" stroke="#2A2A2D" stroke-width="2.00272"/>
<line x1="87.8671" y1="54.7139" x2="87.8671" y2="72.0708" stroke="#2A2A2D" stroke-width="2.00272"/>
<line x1="96.2124" y1="63.726" x2="78.8555" y2="63.726" stroke="#2A2A2D" stroke-width="2.00272"/>
<line x1="115.225" y1="54.7139" x2="115.225" y2="72.0708" stroke="#2A2A2D" stroke-width="2.00272"/>
<line x1="123.57" y1="63.726" x2="106.213" y2="63.726" stroke="#2A2A2D" stroke-width="2.00272"/>
<line x1="142.582" y1="54.7139" x2="142.582" y2="72.0708" stroke="#2A2A2D" stroke-width="2.00272"/>
<line x1="150.927" y1="63.726" x2="133.57" y2="63.726" stroke="#2A2A2D" stroke-width="2.00272"/>
<line x1="169.937" y1="54.7139" x2="169.937" y2="72.0708" stroke="#2A2A2D" stroke-width="2.00272"/>
<line x1="178.283" y1="63.726" x2="160.926" y2="63.726" stroke="#2A2A2D" stroke-width="2.00272"/>
<line x1="5.79679" y1="82.0708" x2="5.79679" y2="99.4277" stroke="#2A2A2D" stroke-width="2.00272"/>
<line x1="14.1421" y1="91.0834" x2="-3.21484" y2="91.0834" stroke="#2A2A2D" stroke-width="2.00272"/>
<line x1="33.1532" y1="82.0708" x2="33.1532" y2="99.4277" stroke="#2A2A2D" stroke-width="2.00272"/>
<line x1="41.4985" y1="91.0834" x2="24.1416" y2="91.0834" stroke="#2A2A2D" stroke-width="2.00272"/>
<line x1="60.5097" y1="82.0708" x2="60.5097" y2="99.4277" stroke="#2A2A2D" stroke-width="2.00272"/>
<line x1="68.855" y1="91.0834" x2="51.498" y2="91.0834" stroke="#2A2A2D" stroke-width="2.00272"/>
<line x1="87.8671" y1="82.0708" x2="87.8671" y2="99.4277" stroke="#2A2A2D" stroke-width="2.00272"/>
<line x1="96.2124" y1="91.0834" x2="78.8555" y2="91.0834" stroke="#2A2A2D" stroke-width="2.00272"/>
<line x1="115.225" y1="82.0708" x2="115.225" y2="99.4277" stroke="#2A2A2D" stroke-width="2.00272"/>
<line x1="123.57" y1="91.0834" x2="106.213" y2="91.0834" stroke="#2A2A2D" stroke-width="2.00272"/>
<line x1="142.582" y1="82.0708" x2="142.582" y2="99.4277" stroke="#2A2A2D" stroke-width="2.00272"/>
<line x1="150.927" y1="91.0829" x2="133.57" y2="91.0829" stroke="#2A2A2D" stroke-width="2.00272"/>
<line x1="169.937" y1="82.0708" x2="169.937" y2="99.4277" stroke="#2A2A2D" stroke-width="2.00272"/>
<line x1="178.283" y1="91.0829" x2="160.926" y2="91.0829" stroke="#2A2A2D" stroke-width="2.00272"/>
<line x1="5.79679" y1="109" x2="5.79679" y2="126.357" stroke="#2A2A2D" stroke-width="2.00272"/>
<line x1="14.1421" y1="118.012" x2="-3.21484" y2="118.012" stroke="#2A2A2D" stroke-width="2.00272"/>
<line x1="33.1532" y1="109" x2="33.1532" y2="126.357" stroke="#2A2A2D" stroke-width="2.00272"/>
<line x1="41.4985" y1="118.012" x2="24.1416" y2="118.012" stroke="#2A2A2D" stroke-width="2.00272"/>
<line x1="60.5097" y1="109" x2="60.5097" y2="126.357" stroke="#2A2A2D" stroke-width="2.00272"/>
<line x1="68.855" y1="118.012" x2="51.498" y2="118.012" stroke="#2A2A2D" stroke-width="2.00272"/>
<line x1="87.8671" y1="109" x2="87.8671" y2="126.357" stroke="#2A2A2D" stroke-width="2.00272"/>
<line x1="96.2124" y1="118.012" x2="78.8555" y2="118.012" stroke="#2A2A2D" stroke-width="2.00272"/>
<line x1="115.225" y1="109" x2="115.225" y2="126.357" stroke="#2A2A2D" stroke-width="2.00272"/>
<line x1="123.57" y1="118.012" x2="106.213" y2="118.012" stroke="#2A2A2D" stroke-width="2.00272"/>
<line x1="142.582" y1="109" x2="142.582" y2="126.357" stroke="#2A2A2D" stroke-width="2.00272"/>
<line x1="150.927" y1="118.012" x2="133.57" y2="118.012" stroke="#2A2A2D" stroke-width="2.00272"/>
<line x1="169.937" y1="109" x2="169.937" y2="126.357" stroke="#2A2A2D" stroke-width="2.00272"/>
<line x1="178.283" y1="118.012" x2="160.926" y2="118.012" stroke="#2A2A2D" stroke-width="2.00272"/>
<line x1="5.79679" y1="136.357" x2="5.79679" y2="153.714" stroke="#2A2A2D" stroke-width="2.00272"/>
<line x1="14.1421" y1="145.37" x2="-3.21484" y2="145.37" stroke="#2A2A2D" stroke-width="2.00272"/>
<line x1="33.1532" y1="136.357" x2="33.1532" y2="153.714" stroke="#2A2A2D" stroke-width="2.00272"/>
<line x1="41.4985" y1="145.37" x2="24.1416" y2="145.37" stroke="#2A2A2D" stroke-width="2.00272"/>
<line x1="60.5097" y1="136.357" x2="60.5097" y2="153.714" stroke="#2A2A2D" stroke-width="2.00272"/>
<line x1="68.855" y1="145.37" x2="51.498" y2="145.37" stroke="#2A2A2D" stroke-width="2.00272"/>
<line x1="87.8671" y1="136.357" x2="87.8671" y2="153.714" stroke="#2A2A2D" stroke-width="2.00272"/>
<line x1="96.2124" y1="145.37" x2="78.8555" y2="145.37" stroke="#2A2A2D" stroke-width="2.00272"/>
<line x1="115.225" y1="136.357" x2="115.225" y2="153.714" stroke="#2A2A2D" stroke-width="2.00272"/>
<line x1="123.57" y1="145.37" x2="106.213" y2="145.37" stroke="#2A2A2D" stroke-width="2.00272"/>
<line x1="142.582" y1="136.357" x2="142.582" y2="153.714" stroke="#2A2A2D" stroke-width="2.00272"/>
<line x1="150.927" y1="145.369" x2="133.57" y2="145.369" stroke="#2A2A2D" stroke-width="2.00272"/>
<line x1="169.937" y1="136.357" x2="169.937" y2="153.714" stroke="#2A2A2D" stroke-width="2.00272"/>
<line x1="178.283" y1="145.369" x2="160.926" y2="145.369" stroke="#2A2A2D" stroke-width="2.00272"/>
<line x1="5.79679" y1="163.714" x2="5.79679" y2="181.071" stroke="#2A2A2D" stroke-width="2.00272"/>
<line x1="14.1421" y1="172.726" x2="-3.21484" y2="172.726" stroke="#2A2A2D" stroke-width="2.00272"/>
<line x1="33.1532" y1="163.714" x2="33.1532" y2="181.071" stroke="#2A2A2D" stroke-width="2.00272"/>
<line x1="41.4985" y1="172.726" x2="24.1416" y2="172.726" stroke="#2A2A2D" stroke-width="2.00272"/>
<line x1="60.5097" y1="163.714" x2="60.5097" y2="181.071" stroke="#2A2A2D" stroke-width="2.00272"/>
<line x1="68.855" y1="172.726" x2="51.498" y2="172.726" stroke="#2A2A2D" stroke-width="2.00272"/>
<line x1="87.8671" y1="163.714" x2="87.8671" y2="181.071" stroke="#2A2A2D" stroke-width="2.00272"/>
<line x1="96.2124" y1="172.726" x2="78.8555" y2="172.726" stroke="#2A2A2D" stroke-width="2.00272"/>
<line x1="115.225" y1="163.714" x2="115.225" y2="181.071" stroke="#2A2A2D" stroke-width="2.00272"/>
<line x1="123.57" y1="172.726" x2="106.213" y2="172.726" stroke="#2A2A2D" stroke-width="2.00272"/>
<line x1="142.582" y1="163.714" x2="142.582" y2="181.071" stroke="#2A2A2D" stroke-width="2.00272"/>
<line x1="150.927" y1="172.726" x2="133.57" y2="172.726" stroke="#2A2A2D" stroke-width="2.00272"/>
<line x1="169.937" y1="163.714" x2="169.937" y2="181.071" stroke="#2A2A2D" stroke-width="2.00272"/>
<line x1="178.283" y1="172.726" x2="160.926" y2="172.726" stroke="#2A2A2D" stroke-width="2.00272"/>
<line x1="5.79679" y1="191.071" x2="5.79679" y2="208.428" stroke="#2A2A2D" stroke-width="2.00272"/>
<line x1="14.1421" y1="200.083" x2="-3.21484" y2="200.083" stroke="#2A2A2D" stroke-width="2.00272"/>
<line x1="33.1532" y1="191.071" x2="33.1532" y2="208.428" stroke="#2A2A2D" stroke-width="2.00272"/>
<line x1="41.4985" y1="200.083" x2="24.1416" y2="200.083" stroke="#2A2A2D" stroke-width="2.00272"/>
<line x1="60.5097" y1="191.071" x2="60.5097" y2="208.428" stroke="#2A2A2D" stroke-width="2.00272"/>
<line x1="68.855" y1="200.083" x2="51.498" y2="200.083" stroke="#2A2A2D" stroke-width="2.00272"/>
<line x1="87.8671" y1="191.071" x2="87.8671" y2="208.428" stroke="#2A2A2D" stroke-width="2.00272"/>
<line x1="96.2124" y1="200.083" x2="78.8555" y2="200.083" stroke="#2A2A2D" stroke-width="2.00272"/>
<line x1="115.225" y1="191.071" x2="115.225" y2="208.428" stroke="#2A2A2D" stroke-width="2.00272"/>
<line x1="123.57" y1="200.083" x2="106.213" y2="200.083" stroke="#2A2A2D" stroke-width="2.00272"/>
<line x1="142.582" y1="191.071" x2="142.582" y2="208.428" stroke="#2A2A2D" stroke-width="2.00272"/>
<line x1="150.927" y1="200.083" x2="133.57" y2="200.083" stroke="#2A2A2D" stroke-width="2.00272"/>
<line x1="169.937" y1="191.071" x2="169.937" y2="208.428" stroke="#2A2A2D" stroke-width="2.00272"/>
<line x1="178.283" y1="200.083" x2="160.926" y2="200.083" stroke="#2A2A2D" stroke-width="2.00272"/>
</svg>
