<svg width="73" height="73" viewBox="0 0 73 73" fill="none" xmlns="http://www.w3.org/2000/svg">
<mask id="path-1-inside-1_839_322" fill="white">
<path d="M61.7969 29.3406C60.8962 25.9791 59.3423 22.828 57.2237 20.0671C55.1052 17.3062 52.4637 14.9896 49.4499 13.2496L48.6026 14.7171C51.4237 16.3458 53.8964 18.5143 55.8794 21.0986C57.8625 23.683 59.3171 26.6326 60.1602 29.7791L61.7969 29.3406Z"/>
</mask>
<path d="M61.7969 29.3406C60.8962 25.9791 59.3423 22.828 57.2237 20.0671C55.1052 17.3062 52.4637 14.9896 49.4499 13.2496L48.6026 14.7171C51.4237 16.3458 53.8964 18.5143 55.8794 21.0986C57.8625 23.683 59.3171 26.6326 60.1602 29.7791L61.7969 29.3406Z" stroke="#E4632C" stroke-width="2.25532" mask="url(#path-1-inside-1_839_322)"/>
<mask id="path-2-inside-2_839_322" fill="white">
<path d="M22.9497 13.2501C19.9359 14.9901 17.2943 17.3067 15.1758 20.0676C13.0573 22.8285 11.5033 25.9796 10.6026 29.341L12.2394 29.7796C13.0825 26.6331 14.5371 23.6835 16.5201 21.0991C18.5032 18.5148 20.9758 16.3463 23.7969 14.7175L22.9497 13.2501Z"/>
</mask>
<path d="M22.9497 13.2501C19.9359 14.9901 17.2943 17.3067 15.1758 20.0676C13.0573 22.8285 11.5033 25.9796 10.6026 29.341L12.2394 29.7796C13.0825 26.6331 14.5371 23.6835 16.5201 21.0991C18.5032 18.5148 20.9758 16.3463 23.7969 14.7175L22.9497 13.2501Z" stroke="#E4632C" stroke-width="2.25532" mask="url(#path-2-inside-2_839_322)"/>
<mask id="path-3-inside-3_839_322" fill="white">
<path d="M10.6015 43.0579C11.5022 46.4193 13.0562 49.5705 15.1747 52.3314C17.2932 55.0922 19.9348 57.4088 22.9486 59.1488L23.7958 57.6814C20.9747 56.0526 18.5021 53.8842 16.519 51.2998C14.536 48.7155 13.0814 45.7658 12.2383 42.6193L10.6015 43.0579Z"/>
</mask>
<path d="M10.6015 43.0579C11.5022 46.4193 13.0562 49.5705 15.1747 52.3314C17.2932 55.0922 19.9348 57.4088 22.9486 59.1488L23.7958 57.6814C20.9747 56.0526 18.5021 53.8842 16.519 51.2998C14.536 48.7155 13.0814 45.7658 12.2383 42.6193L10.6015 43.0579Z" stroke="#E4632C" stroke-width="2.25532" mask="url(#path-3-inside-3_839_322)"/>
<mask id="path-4-inside-4_839_322" fill="white">
<path d="M49.4488 59.1493C52.4626 57.4093 55.1041 55.0927 57.2226 52.3318C59.3411 49.571 60.8951 46.4198 61.7958 43.0584L60.159 42.6198C59.3159 45.7663 57.8613 48.716 55.8783 51.3003C53.8953 53.8847 51.4226 56.0531 48.6015 57.6819L49.4488 59.1493Z"/>
</mask>
<path d="M49.4488 59.1493C52.4626 57.4093 55.1041 55.0927 57.2226 52.3318C59.3411 49.571 60.8951 46.4198 61.7958 43.0584L60.159 42.6198C59.3159 45.7663 57.8613 48.716 55.8783 51.3003C53.8953 53.8847 51.4226 56.0531 48.6015 57.6819L49.4488 59.1493Z" stroke="#E4632C" stroke-width="2.25532" mask="url(#path-4-inside-4_839_322)"/>
</svg>
